<svg width="2000" height="2000" viewBox="0 0 2000 2000" fill="none" xmlns="http://www.w3.org/2000/svg">
<rect width="2000" height="2000" rx="800" fill="#5857A9"/>
<g filter="url(#filter0_g_211_2)">
<path d="M1266.21 1366.3C1328.48 1330.43 1379.24 1220.79 1300.05 1109.79" stroke="#440099" stroke-width="20.9744"/>
</g>
<g filter="url(#filter1_g_211_2)">
<path d="M851.983 459.378L928.463 316.571" stroke="#440099" stroke-width="20.9744"/>
</g>
<g filter="url(#filter2_g_211_2)">
<path d="M895.976 493.421L1026.83 397.919" stroke="#440099" stroke-width="20.9744"/>
</g>
<g filter="url(#filter3_g_211_2)">
<rect x="1081.42" y="1434.66" width="94.7533" height="272.077" rx="47.3767" fill="url(#paint0_linear_211_2)"/>
<rect x="756.553" y="526.381" width="128.594" height="860.901" rx="64.2969" fill="url(#paint1_linear_211_2)"/>
<rect x="1181.59" y="1434.66" width="100.168" height="272.077" rx="50.0839" fill="url(#paint2_linear_211_2)"/>
<rect x="885.147" y="1434.66" width="100.168" height="272.077" rx="50.0839" fill="url(#paint3_linear_211_2)"/>
<rect x="782.272" y="1434.66" width="100.168" height="272.077" rx="50.0839" fill="url(#paint4_linear_211_2)"/>
<path d="M1139.89 1270.87C1223.72 1270.87 1289.12 1343.41 1280.47 1426.79C1273 1498.81 1212.3 1553.54 1139.89 1553.54L1029.2 1553.54L878.737 1549.8C822.834 1548.42 776.902 1505.24 772.065 1449.53L756.553 1270.87L1139.89 1270.87Z" fill="url(#paint5_linear_211_2)"/>
<path d="M1147.9 1270.38C1117.44 1403.04 947.834 1386.79 926.176 1270.38H1040.56H1147.9Z" fill="#AD78BD"/>
<path d="M1015.02 1553.4C1033.27 1448.75 1170.31 1454.47 1191.65 1544.4L1191.65 1549.96L1100.45 1558.59L1015.02 1553.4Z" fill="#AD78BD"/>
<path d="M1228.7 1312.83C1149.86 1360 1179.75 1464.91 1282.56 1442.39C1282.56 1393.76 1282.56 1352.43 1228.7 1312.83Z" fill="#8ABAD3"/>
<path d="M762.323 1416.95C851.669 1395.58 857.181 1286.14 752.34 1276.81L762.323 1416.95Z" fill="#AD78BD"/>
<path d="M883.091 1122.33C812.307 1133.99 802.43 1229.11 883.091 1245.51L883.091 1122.33Z" fill="#8ABAD3"/>
<path d="M885.559 911.35C814.775 923.012 804.898 1018.13 885.559 1034.53L885.559 911.35Z" fill="#AD78BD"/>
<path d="M885.559 728.749C814.775 740.41 804.898 835.528 885.559 851.928L885.559 728.749Z" fill="#8ABAD3"/>
<path d="M971.778 1448.87C971.778 1476.16 947.536 1490.16 917.633 1490.16C887.73 1490.16 863.488 1476.16 863.488 1448.87C863.488 1421.59 887.73 1399.47 917.633 1399.47C947.536 1399.47 971.778 1421.59 971.778 1448.87Z" fill="#8ABAD3"/>
<path d="M739.662 391.507C742.153 344.184 782.534 307.84 829.857 310.33C839.431 310.834 846.785 319.003 846.281 328.577L841.004 428.836C863.602 435.442 884.558 448.584 900.806 467.992C911.499 480.766 919.16 495.07 923.871 510.029L1027.32 504.374C1036.66 503.863 1044.65 511.024 1045.16 520.368C1047.76 567.915 1011.32 608.566 963.778 611.166L920.375 613.54C916.981 613.726 913.645 613.577 910.4 613.126C903.762 623.584 895.424 633.213 885.419 641.589L742.341 761.37C690.155 805.059 612.433 798.17 568.744 745.983C525.056 693.797 531.944 616.075 584.13 572.387L727.209 452.606C730.606 449.762 734.112 447.134 737.709 444.717C737.313 441.657 737.188 438.519 737.355 435.328L739.662 391.507Z" fill="url(#paint6_linear_211_2)"/>
<path d="M788.813 544.601C779.21 553.655 764.085 553.209 755.032 543.605C745.978 534.002 746.424 518.877 756.028 509.824L757.693 508.254C767.297 499.2 782.421 499.646 791.475 509.25C800.528 518.853 800.082 533.978 790.479 543.031L788.813 544.601Z" fill="#440099"/>
<path d="M616.922 687.935C612.298 692.294 605.016 692.079 600.657 687.455C596.298 682.831 596.513 675.549 601.137 671.191L625.761 647.977C630.384 643.619 637.666 643.833 642.025 648.457C646.384 653.081 646.169 660.363 641.546 664.722L616.922 687.935Z" fill="#440099"/>
<path d="M833.23 586.55C823.626 595.604 808.502 595.158 799.448 585.554C790.395 575.95 790.841 560.826 800.444 551.772L802.11 550.202C811.713 541.149 826.838 541.595 835.891 551.199C844.945 560.802 844.499 575.927 834.895 584.98L833.23 586.55Z" fill="#440099"/>
<path d="M653.469 724.024C648.845 728.382 641.564 728.168 637.205 723.544C632.846 718.92 633.061 711.638 637.684 707.279L662.308 684.066C666.932 679.707 674.214 679.922 678.573 684.546C682.931 689.17 682.717 696.452 678.093 700.81L653.469 724.024Z" fill="#440099"/>
<path d="M883.409 642.966C841.124 612.488 764.975 669.926 790.853 724.247L883.409 642.966Z" fill="#AD78BD"/>
<path d="M612.793 551.083C654.721 582.052 731.534 525.506 706.29 470.887L612.793 551.083Z" fill="#8ABAD3"/>
<path d="M1355.58 1100.67C1368.57 1126.03 1358.55 1157.11 1333.2 1170.1C1307.85 1183.1 1276.76 1173.08 1263.77 1147.72L1228.15 1078.21C1215.16 1052.86 1225.18 1021.78 1250.53 1008.78C1275.88 995.791 1306.97 1005.81 1319.96 1031.16L1355.58 1100.67Z" fill="#AD78BD"/>
<path d="M956.538 320.211C949.046 333.189 932.451 337.635 919.474 330.142C906.496 322.65 902.05 306.056 909.542 293.078L930.085 257.498C937.577 244.52 954.172 240.074 967.149 247.566C980.127 255.059 984.573 271.653 977.081 284.631L956.538 320.211Z" fill="#8ABAD3"/>
<path d="M1050.54 413.375C1038.16 421.819 1021.28 418.628 1012.84 406.248C1004.4 393.868 1007.59 376.987 1019.97 368.544L1053.91 345.394C1066.29 336.951 1083.17 340.142 1091.61 352.522C1100.06 364.902 1096.87 381.783 1084.49 390.226L1050.54 413.375Z" fill="#AD78BD"/>
</g>
<defs>
<filter id="filter0_g_211_2" x="1257.28" y="1100" width="97.5082" height="279.091" filterUnits="userSpaceOnUse" color-interpolation-filters="sRGB">
<feFlood flood-opacity="0" result="BackgroundImageFix"/>
<feBlend mode="normal" in="SourceGraphic" in2="BackgroundImageFix" result="shape"/>
<feTurbulence type="fractalNoise" baseFrequency="0.10952866077423096 0.10952866077423096" numOctaves="3" seed="771" />
<feDisplacementMap in="shape" scale="7.4027271270751953" xChannelSelector="R" yChannelSelector="G" result="displacedImage" width="100%" height="100%" />
<feMerge result="effect1_texture_211_2">
<feMergeNode in="displacedImage"/>
</feMerge>
</filter>
<filter id="filter1_g_211_2" x="839.037" y="307.918" width="102.372" height="160.112" filterUnits="userSpaceOnUse" color-interpolation-filters="sRGB">
<feFlood flood-opacity="0" result="BackgroundImageFix"/>
<feBlend mode="normal" in="SourceGraphic" in2="BackgroundImageFix" result="shape"/>
<feTurbulence type="fractalNoise" baseFrequency="0.10952866077423096 0.10952866077423096" numOctaves="3" seed="771" />
<feDisplacementMap in="shape" scale="7.4027271270751953" xChannelSelector="R" yChannelSelector="G" result="displacedImage" width="100%" height="100%" />
<feMerge result="effect1_texture_211_2">
<feMergeNode in="displacedImage"/>
</feMerge>
</filter>
<filter id="filter2_g_211_2" x="886.093" y="385.746" width="150.62" height="119.847" filterUnits="userSpaceOnUse" color-interpolation-filters="sRGB">
<feFlood flood-opacity="0" result="BackgroundImageFix"/>
<feBlend mode="normal" in="SourceGraphic" in2="BackgroundImageFix" result="shape"/>
<feTurbulence type="fractalNoise" baseFrequency="0.10952866077423096 0.10952866077423096" numOctaves="3" seed="771" />
<feDisplacementMap in="shape" scale="7.4027271270751953" xChannelSelector="R" yChannelSelector="G" result="displacedImage" width="100%" height="100%" />
<feMerge result="effect1_texture_211_2">
<feMergeNode in="displacedImage"/>
</feMerge>
</filter>
<filter id="filter3_g_211_2" x="535.065" y="238.992" width="831.137" height="1472.68" filterUnits="userSpaceOnUse" color-interpolation-filters="sRGB">
<feFlood flood-opacity="0" result="BackgroundImageFix"/>
<feBlend mode="normal" in="SourceGraphic" in2="BackgroundImageFix" result="shape"/>
<feTurbulence type="fractalNoise" baseFrequency="0.086224690079689026 0.086224690079689026" numOctaves="3" seed="4831" />
<feDisplacementMap in="shape" scale="9.8703031539916992" xChannelSelector="R" yChannelSelector="G" result="displacedImage" width="100%" height="100%" />
<feMerge result="effect1_texture_211_2">
<feMergeNode in="displacedImage"/>
</feMerge>
</filter>
<linearGradient id="paint0_linear_211_2" x1="1128.8" y1="1434.66" x2="1128.8" y2="1706.74" gradientUnits="userSpaceOnUse">
<stop stop-color="#8ABAD3"/>
<stop offset="1" stop-color="#D8FAFF"/>
</linearGradient>
<linearGradient id="paint1_linear_211_2" x1="820.85" y1="526.381" x2="820.85" y2="1387.28" gradientUnits="userSpaceOnUse">
<stop stop-color="#8ABAD3"/>
<stop offset="1" stop-color="#EFFDFF"/>
</linearGradient>
<linearGradient id="paint2_linear_211_2" x1="1231.67" y1="1434.66" x2="1231.67" y2="1706.74" gradientUnits="userSpaceOnUse">
<stop offset="0.25" stop-color="#8ABAD3"/>
<stop offset="1" stop-color="#DDF9FF"/>
</linearGradient>
<linearGradient id="paint3_linear_211_2" x1="935.231" y1="1434.66" x2="935.231" y2="1706.74" gradientUnits="userSpaceOnUse">
<stop stop-color="#DFFEFF"/>
<stop offset="1" stop-color="#8ABAD3"/>
</linearGradient>
<linearGradient id="paint4_linear_211_2" x1="832.356" y1="1434.66" x2="832.356" y2="1706.74" gradientUnits="userSpaceOnUse">
<stop stop-color="#DFFEFF"/>
<stop offset="1" stop-color="#8ABAD3"/>
</linearGradient>
<linearGradient id="paint5_linear_211_2" x1="1296.65" y1="1421.12" x2="756.553" y2="1421.12" gradientUnits="userSpaceOnUse">
<stop stop-color="#8ABAD3"/>
<stop offset="1" stop-color="#E2FBFF"/>
</linearGradient>
<linearGradient id="paint6_linear_211_2" x1="792.646" y1="310.209" x2="792.646" y2="790.114" gradientUnits="userSpaceOnUse">
<stop stop-color="#8ABAD3"/>
<stop offset="1" stop-color="#EFFDFF"/>
</linearGradient>
</defs>
</svg>
